{"title":"One Christmas (1994) DVDRip ","uid":9368654,"size":726455811,"categoryP":"video","categoryS":"movies","magnet":"?xt=urn:btih:5784cee5e5042ca0e29d0ba8438c1552f925068a&amp;dn=One+Christmas+%281994%29+DVDRip+&amp;tr=udp%3A%2F%2Ftracker.openbittorrent.com%3A80&amp;tr=udp%3A%2F%2Fopen.demonii.com%3A1337&amp;tr=udp%3A%2F%2Ftracker.coppersurfer.tk%3A6969&amp;tr=udp%3A%2F%2Fexodus.desync.com%3A6969","seeders":0,"leechers":0,"uploader":"7","files":1,"time":1387480141,"description":"Released\t\nGenre\t, Drama, Family\n\nActors\tKatharine Hepburn, Henry Winkler, Swoosie Kurtz\n\nPlot\tA young man is sent to visit his estranged father for Christmas in 1930 in New Orleans. Based on an autobiograhical short story by Truman Capote.\nIMDB link\t\n &lt;a href=&quot;\nhttp://www.imdb.com/title/tt0110732/&quot; rel=&quot;nofollow&quot; target=&quot;_NEW&quot;&gt;\nhttp://www.imdb.com/title/tt0110732/&lt;/a&gt;\n\nGeneral\nComplete name                            : One Christmas (1994).avi\nFormat                                   : AVI\nFormat/Info                              : Audio Video Interleave\nFile size                                : 693 MiB\nDuration                                 : 1h 30mn\nOverall bit rate                         : 1 071 Kbps\n\nVideo\nID                                       : 0\nFormat                                   : MPEG-4 Visual\nFormat profile                           : Simple@L3\nFormat settings, BVOP                    : No\nFormat settings, QPel                    : No\nFormat settings, GMC                     : No warppoints\nFormat settings, Matrix                  : Default (H.263)\nCodec ID                                 : XVID\nCodec ID/Hint                            : XviD\nDuration                                 : 1h 30mn\nBit rate                                 : 930 Kbps\nWidth                                    : 640 pixels\nHeight                                   : 480 pixels\nDisplay aspect ratio                     : 4:3\nFrame rate                               : 29.970 fps\nOriginal frame rate                      : 29.000 fps\nColor space                              : YUV\nChroma subsampling                       : 4:2:0\nBit depth                                : 8 bits\nScan type                                : Progressive\nCompression mode                         : Lossy\nBits/(Pixel*Frame)                       : 0.101\nStream size                              : 601 MiB (87%)\nWriting library                          : XviD 1.2.1 (UTC 2008-12-04)\n\nAudio\nID                                       : 1\nFormat                                   : MPEG Audio\nFormat version                           : Version 1\nFormat profile                           : Layer 3\nMode                                     : Joint stereo\nCodec ID                                 : 55\nCodec ID/Hint                            : MP3\nDuration                                 : 1h 30mn\nBit rate mode                            : Constant\nBit rate                                 : 128 Kbps\nChannel(s)                               : 2 channels\nSampling rate                            : 44.1 KHz\nCompression mode                         : Lossy\nStream size                              : 82.8 MiB (12%)\nAlignment                                : Aligned on interleaves\nInterleave, duration                     : 26 ms (0.78 video frame)\nWriting library                          : LAME3.98.2\n &lt;a href=&quot;\nhttp://lookpic.com/O/i2/1369/bwED2wzm.jpeg&quot; rel=&quot;nofollow&quot; target=&quot;_NEW&quot;&gt;\nhttp://lookpic.com/O/i2/1369/bwED2wzm.jpeg&lt;/a&gt;","torrent":{"xt":"urn:btih:5784cee5e5042ca0e29d0ba8438c1552f925068a","amp;dn":"One+Christmas+%281994%29+DVDRip+","amp;tr":["udp%3A%2F%2Ftracker.openbittorrent.com%3A80","udp%3A%2F%2Fopen.demonii.com%3A1337","udp%3A%2F%2Ftracker.coppersurfer.tk%3A6969","udp%3A%2F%2Fexodus.desync.com%3A6969"],"infoHash":"5784cee5e5042ca0e29d0ba8438c1552f925068a","infoHashBuffer":{"type":"Buffer","data":[87,132,206,229,229,4,44,160,226,157,11,168,67,140,21,82,249,37,6,138]},"announce":[],"urlList":[]}}